<?xml version="1.0" encoding="UTF-8" standalone="no"?>
<!-- Created with Inkscape (http://www.inkscape.org/) -->

<svg
   xmlns:dc="http://purl.org/dc/elements/1.1/"
   xmlns:cc="http://creativecommons.org/ns#"
   xmlns:rdf="http://www.w3.org/1999/02/22-rdf-syntax-ns#"
   xmlns:svg="http://www.w3.org/2000/svg"
   xmlns="http://www.w3.org/2000/svg"
   xmlns:xlink="http://www.w3.org/1999/xlink"
   xmlns:sodipodi="http://sodipodi.sourceforge.net/DTD/sodipodi-0.dtd"
   xmlns:inkscape="http://www.inkscape.org/namespaces/inkscape"
   id="svg2"
   sodipodi:version="0.32"
   inkscape:version="0.48.3.1 r9886"
   width="990"
   height="765"
   xml:space="preserve"
   sodipodi:docname="MontrealPythonLogoFullpage.svg"
   inkscape:output_extension="org.inkscape.output.svg.inkscape"
   version="1.0"><metadata
     id="metadata7"><rdf:RDF><cc:Work
         rdf:about=""><dc:format>image/svg+xml</dc:format><dc:type
           rdf:resource="http://purl.org/dc/dcmitype/StillImage" /><dc:title></dc:title></cc:Work></rdf:RDF></metadata><defs
     id="defs5"><inkscape:perspective
       sodipodi:type="inkscape:persp3d"
       inkscape:vp_x="0 : 526.18109 : 1"
       inkscape:vp_y="0 : 1000 : 0"
       inkscape:vp_z="744.09448 : 526.18109 : 1"
       inkscape:persp3d-origin="372.04724 : 350.78739 : 1"
       id="perspective9" /><clipPath
       clipPathUnits="userSpaceOnUse"
       id="clipPath17"><path
         d="M 0,14400 L 14400,14400 L 14400,0 L 0,0 L 0,14400 z"
         id="path19" /></clipPath><linearGradient
       x1="0"
       y1="0"
       x2="1"
       y2="0"
       gradientUnits="userSpaceOnUse"
       gradientTransform="matrix(162.6665,0,0,-162.6665,7064.3306,7237.4614)"
       spreadMethod="pad"
       id="linearGradient37"><stop
         style="stop-opacity:1;stop-color:#a0d51d"
         offset="0"
         id="stop39" /><stop
         style="stop-opacity:1;stop-color:#8ab818"
         offset="1"
         id="stop41" /></linearGradient><clipPath
       clipPathUnits="userSpaceOnUse"
       id="clipPath49"><path
         d="M 0,14400 L 14400,14400 L 14400,0 L 0,0 L 0,14400 z"
         id="path51" /></clipPath><radialGradient
       fx="0"
       fy="0"
       cx="0"
       cy="0"
       r="1"
       gradientUnits="userSpaceOnUse"
       gradientTransform="matrix(34.412765,0,0,-34.412765,7274.9971,7256.3359)"
       spreadMethod="pad"
       id="radialGradient85"><stop
         style="stop-opacity:1;stop-color:#a0d51d"
         offset="0"
         id="stop87" /><stop
         style="stop-opacity:1;stop-color:#8ab818"
         offset="1"
         id="stop89" /></radialGradient><clipPath
       clipPathUnits="userSpaceOnUse"
       id="clipPath97"><path
         d="M 0,14400 L 14400,14400 L 14400,0 L 0,0 L 0,14400 z"
         id="path99" /></clipPath><clipPath
       clipPathUnits="userSpaceOnUse"
       id="clipPath109"><path
         d="M 7288.18,7292.89 L 7325.32,7292.89 L 7325.32,7255.1 L 7288.18,7255.1 L 7288.18,7292.89 z"
         id="path111" /></clipPath><clipPath
       clipPathUnits="userSpaceOnUse"
       id="clipPath125"><path
         d="M 7020.33,7312.1 L 7372.22,7312.1 L 7372.22,7204.39 L 7020.33,7204.39 L 7020.33,7312.1 z"
         id="path127" /></clipPath><clipPath
       clipPathUnits="userSpaceOnUse"
       id="clipPath129"><path
         d="M 7020.33,7312.1 L 7372.22,7312.1 L 7372.22,7204.39 L 7020.33,7204.39 L 7020.33,7312.1 z"
         id="path131" /></clipPath><radialGradient
       fx="0"
       fy="0"
       cx="0"
       cy="0"
       r="1"
       gradientUnits="userSpaceOnUse"
       gradientTransform="matrix(136.69412,1.31683e-2,1.12457e-2,-107.55975,7196.2773,7228.5767)"
       spreadMethod="pad"
       id="radialGradient137"><stop
         style="stop-opacity:1;stop-color:#ffffff"
         offset="0"
         id="stop139" /><stop
         style="stop-opacity:1;stop-color:#100f0d"
         offset="1"
         id="stop141" /></radialGradient><mask
       maskUnits="userSpaceOnUse"
       x="0"
       y="0"
       width="1"
       height="1"
       id="mask143"><g
         id="g145"><g
           clip-path="url(#clipPath125)"
           id="g147"
           style="opacity:0.35000604"><path
             d="M 7020.327,7312.099 L 7372.223,7312.099 L 7372.223,7204.391 L 7020.327,7204.391 L 7020.327,7312.099 z"
             style="fill:#000000;fill-opacity:1;fill-rule:nonzero;stroke:none"
             id="path149" /><g
             id="g151"><g
               id="g153" /><g
               id="g155"><g
                 clip-path="url(#clipPath129)"
                 id="g157"><g
                   id="g159"><g
                     id="g161"><g
                       id="g163"><g
                         id="g165"><path
                           d="M 7372.221,7235.187 C 7372.219,7223.858 7360.55,7214.674 7346.153,7214.674 L 7046.4,7214.649 C 7032.004,7214.648 7020.334,7223.83 7020.333,7235.157 L 7020.329,7291.56 C 7020.327,7302.887 7031.996,7312.07 7046.392,7312.072 L 7346.145,7312.095 C 7360.544,7312.099 7372.21,7302.916 7372.213,7291.588 L 7372.221,7235.187 z"
                           style="fill:url(#radialGradient137);stroke:none"
                           id="path167" /></g></g></g></g></g></g></g></g></g></mask><clipPath
       clipPathUnits="userSpaceOnUse"
       id="clipPath173"><path
         d="M 7020.33,7312.1 L 7372.22,7312.1 L 7372.22,7204.39 L 7020.33,7204.39 L 7020.33,7312.1 z"
         id="path175" /></clipPath><linearGradient
       inkscape:collect="always"
       xlink:href="#linearGradient37"
       id="linearGradient2641"
       gradientUnits="userSpaceOnUse"
       gradientTransform="matrix(162.6665,0,0,-162.6665,7064.3306,7237.4614)"
       spreadMethod="pad"
       x1="0"
       y1="0"
       x2="1"
       y2="0" /><radialGradient
       inkscape:collect="always"
       xlink:href="#radialGradient85"
       id="radialGradient2643"
       gradientUnits="userSpaceOnUse"
       gradientTransform="matrix(34.412765,0,0,-34.412765,7274.9971,7256.3359)"
       spreadMethod="pad"
       cx="0"
       cy="0"
       fx="0"
       fy="0"
       r="1" /><linearGradient
       inkscape:collect="always"
       xlink:href="#linearGradient37"
       id="linearGradient2719"
       gradientUnits="userSpaceOnUse"
       gradientTransform="matrix(162.6665,0,0,-162.6665,7064.3306,7237.4614)"
       spreadMethod="pad"
       x1="0"
       y1="0"
       x2="1"
       y2="0" /><radialGradient
       inkscape:collect="always"
       xlink:href="#radialGradient85"
       id="radialGradient2721"
       gradientUnits="userSpaceOnUse"
       gradientTransform="matrix(34.412765,0,0,-34.412765,7274.9971,7256.3359)"
       spreadMethod="pad"
       cx="0"
       cy="0"
       fx="0"
       fy="0"
       r="1" /></defs><sodipodi:namedview
     inkscape:window-height="683"
     inkscape:window-width="1016"
     inkscape:pageshadow="2"
     inkscape:pageopacity="0.0"
     guidetolerance="10.0"
     gridtolerance="10.0"
     objecttolerance="10.0"
     borderopacity="1.0"
     bordercolor="#666666"
     pagecolor="#ffffff"
     id="base"
     showgrid="false"
     inkscape:zoom="0.60130719"
     inkscape:cx="437.0958"
     inkscape:cy="582.06522"
     inkscape:window-x="65"
     inkscape:window-y="26"
     inkscape:current-layer="g2682"
     inkscape:window-maximized="0" /><g
     id="g11"
     inkscape:groupmode="layer"
     inkscape:label="MontrealPythonSticker_FullColour"
     transform="matrix(1.25,0,0,-1.25,-8829.7161,9138.9424)"><g
       id="g2645"><g
         id="g2682"
         transform="translate(30.033332,-101.27943)"><g
           id="g13"
           transform="matrix(2.6337359,0,0,3.5261968,-11536.803,-18365.604)"><g
             id="g15"
             clip-path="url(#clipPath17)"><g
               id="g21"
               transform="translate(7341.8525,7175.9443)"><path
                 d="m 0,0 c -0.002,-11.328 -9.182,-20.509 -20.508,-20.515 l -235.867,-0.016 c -11.327,-0.002 -20.511,9.179 -20.512,20.508 l -0.01,112.805 c 0,11.327 9.182,20.512 20.51,20.511 l 235.866,0.02 c 11.328,0.001 20.509,-9.18 20.512,-20.508 L 0,0 z"
                 style="fill:#100f0d;fill-opacity:1;fill-rule:nonzero;stroke:none"
                 id="path23"
                 inkscape:connector-curvature="0" /></g></g></g><g
           id="g2609"
           transform="matrix(2.6766346,0,0,2.6766346,-11818.453,-12185.377)"><g
             transform="matrix(0.9632004,0,0,1.2378272,259.79859,-1739.5597)"
             id="g25"><g
               id="g27"><g
                 id="g33"><g
                   id="g35"><path
                     id="path43"
                     style="fill:url(#linearGradient2719);stroke:none"
                     d="m 7080.336,7314.367 c -11.329,0 -20.508,-9.186 -20.508,-20.513 l 0,0 0.01,-112.805 c 0,-11.326 9.183,-20.512 20.509,-20.508 l 0,0 235.87,0.018 c 11.326,0 20.506,9.182 20.506,20.512 l 0,0 -0.011,112.805 c 0,11.326 -9.179,20.509 -20.513,20.509 l 0,0 -235.863,-0.018 z"
                     inkscape:connector-curvature="0" /></g></g></g></g><g
             transform="matrix(0.9632004,0,0,0.9632004,259.79859,269.16617)"
             id="g45"><g
               clip-path="url(#clipPath49)"
               id="g47"><g
   transform="translate(7109.8301,7235.1855)"
   id="g53"><path
     id="path55"
     style="fill:#100f0d;fill-opacity:1;fill-rule:nonzero;stroke:none"
     d="M 0,0 11.498,0.001 C 13.656,0 15.215,-1.112 15.96,-3.121 l 5.652,-15.463 c 0.745,-2.083 1.414,-5.952 1.414,-5.952 l 0.148,0.001 c 0,0 0.67,3.87 1.265,5.95 l 4.235,15.466 c 0.52,2.009 2.529,3.12 4.536,3.12 l 9.239,0.001 0.353,0.001 6.991,0.001 10e-4,10.336 12.492,0 10e-4,-10.337 8.031,0.003 0.001,-10.037 -8.03,-10e-4 -0.001,-12.418 c 0.002,-4.312 4.389,-4.905 6.84,-4.907 0.903,0.002 1.497,0.055 1.647,0.069 l 0,0.006 7.504,0.002 -0.003,29.742 c 0,1.039 -0.594,1.635 -1.636,1.636 l -2.827,-10e-4 0,10.781 11.898,0.002 c 3.794,-0.001 5.426,-1.636 5.428,-5.429 l 0,-11.376 c 0.001,-1.931 -0.148,-3.273 -0.148,-3.273 l 0.148,0.001 c 2.157,3.792 6.618,6.098 11.674,6.099 7.735,0.002 13.755,-3.567 13.756,-14.349 l 0,-12.416 c 0.002,-1.042 0.6,-1.638 1.643,-1.638 l 7.685,-10e-4 c -1.116,2.453 -1.735,5.223 -1.736,8.254 0,12.047 9.589,20.152 21.559,20.154 2.353,-0.001 4.606,-0.314 6.716,-0.893 l 29.728,0.002 c 3.494,0.002 5.351,-1.706 5.351,-4.312 l 0.001,-0.52 c -0.001,-0.372 -0.076,-0.891 -0.076,-0.891 l 0.149,-10e-4 c 1.785,2.975 5.352,6.618 12.12,6.62 5.085,0.001 9.416,-1.561 11.798,-5.682 l -0.006,58.333 c 0,5.664 -4.593,10.254 -10.256,10.253 L -24.366,63.797 C -30.029,63.795 -34.62,59.206 -34.619,53.541 l 0.004,-38.672 17.556,0 C -7.869,14.873 -1.335,8.864 0,0"
     inkscape:connector-curvature="0" /></g><g
   transform="translate(7255.6289,7225.3828)"
   id="g57"><path
     id="path59"
     style="fill:#100f0d;fill-opacity:1;fill-rule:nonzero;stroke:none"
     d="m 0,0 c -4.685,0 -8.701,-3.644 -8.701,-9.443 0,-5.724 4.018,-9.219 8.703,-9.217 4.683,0 8.697,3.493 8.697,9.219 C 8.7,-3.641 4.685,0.001 0,0"
     inkscape:connector-curvature="0" /></g><g
   transform="translate(7090.3159,7238.9043)"
   id="g61"><path
     id="path63"
     style="fill:#100f0d;fill-opacity:1;fill-rule:nonzero;stroke:none"
     d="m 0,0 -5.204,-0.001 10e-4,-14.425 4.98,0 c 4.313,-10e-4 6.395,3.048 6.394,7.288 C 6.171,-2.901 4.087,0 0,0"
     inkscape:connector-curvature="0" /></g><g
   transform="translate(7310.4355,7202.3369)"
   id="g65"><path
     id="path67"
     style="fill:#100f0d;fill-opacity:1;fill-rule:nonzero;stroke:none"
     d="m 0,0 -0.003,17.03 c 0,3.567 -1.413,5.055 -4.237,5.055 -4.016,-0.001 -6.471,-2.231 -7.585,-5.504 -0.523,-1.486 -0.742,-3.196 -0.742,-5.056 l 0,-16.952 -12.863,-0.003 -0.003,25.877 c 0,1.043 -0.593,1.636 -1.636,1.636 l -7.917,0 c 1.165,-2.517 1.816,-5.363 1.815,-8.477 0.003,-11.969 -9.589,-19.927 -21.634,-19.928 -2.354,0 -4.608,0.31 -6.721,0.889 l -29.94,-0.002 c -3.793,0 -5.43,1.635 -5.43,5.427 l -0.002,17.03 c 0,3.569 -1.41,5.057 -4.237,5.055 -3.938,0 -6.546,-2.306 -7.659,-5.654 -0.521,-1.485 -0.67,-3.124 -0.669,-4.904 l 0.002,-16.956 -12.865,-10e-4 -0.558,0.023 -6.881,0.029 c 0,0 -1.411,-0.422 -3.493,-0.421 -6.098,-10e-4 -17.922,1.632 -17.925,14.496 l 0,13.351 -6.972,-10e-4 0,0.033 -1.06,-10e-4 c -0.892,10e-4 -1.411,-0.221 -1.785,-1.19 l -11.598,-30.413 c -3.269,-8.476 -9.888,-11.522 -15.985,-11.525 -6.617,0 -10.781,4.088 -10.781,4.088 l 4.609,9.073 c 0,0 2.228,-2.454 5.279,-2.454 2.081,10e-4 4.462,0.596 5.726,3.794 l 0.444,1.114 -12.121,26.32 c -0.446,0.969 -0.743,1.192 -1.637,1.191 l -4.517,0 c -2.442,-6.712 -8.317,-11.078 -16.081,-11.082 l -7.66,0 0.002,-16.432 -9.898,-10e-4 0,-57.676125 c 0.002,-5.664 4.594,-12.834226 10.257,-12.834226 l 225.613,0.537045 c 5.661,0.002 10.253,6.653181 10.253,12.319181 L 10.902,-5.426 l -5.471,0 C 1.639,-5.426 -0.002,-3.792 0,0"
     inkscape:connector-curvature="0"
     sodipodi:nodetypes="ccccscccsccccccccccccccccccccccccccccccccccccccccsc" /></g><text
   id="text69"
   transform="matrix(1,9.0641045e-5,9.0641045e-5,-1,7083.2134,7259.8032)"><tspan
     id="tspan71"
     sodipodi:role="line"
     y="0"
     x="0 32.146584 55.290627 78.772263 91.97599 105.74238 126.44823 146.854"
     style="font-size:37.51060104px;font-variant:normal;font-weight:500;font-stretch:normal;writing-mode:lr-tb;fill:#918f90;fill-opacity:1;fill-rule:nonzero;stroke:none;font-family:Museo 500;-inkscape-font-specification:Museo500-Regular">Montréal</tspan></text>

<text
   style="font-size:12px"
   y="-7149.8286"
   x="7126.063"
   id="text69-1"
   transform="matrix(1,9.0641044e-5,9.0641044e-5,-1,0,0)"><tspan
     id="tspan71-6"
     sodipodi:role="line"
     y="-7149.8286"
     x="7126.063"
     style="font-size:37.51060104px;font-variant:normal;font-weight:500;font-stretch:normal;writing-mode:lr-tb;fill:#918f90;fill-opacity:1;fill-rule:nonzero;stroke:none;font-family:Museo 500;-inkscape-font-specification:Museo500-Regular">Workshop</tspan></text>
</g></g><g
             transform="matrix(0.9632004,0,0,0.9632004,259.79859,269.16617)"
             id="g73"><g
               id="g75"><g
                 id="g81"><g
                   id="g83"><path
                     id="path91"
                     style="fill:url(#radialGradient2721);stroke:none"
                     d="m 7296.807,7309.756 c -17.835,0 -32.294,-14.46 -32.294,-32.298 l 0,0 c 0,-17.834 14.463,-32.294 32.301,-32.294 l 0,0 c 17.835,0 32.29,14.463 32.287,32.301 l 0,0 c 0,17.832 -14.457,32.289 -32.287,32.291 l 0,0 c 0,0 0,0 -0.01,0"
                     inkscape:connector-curvature="0" /></g></g></g></g><g
             transform="matrix(0.9632004,0,0,0.9632004,7284.7825,7302.4892)"
             id="g101"><path
               id="path103"
               style="fill:#ffffff;fill-opacity:1;fill-rule:nonzero;stroke:none"
               d="M 0,0 C 1.246,0.005 2.271,-1.029 2.271,-2.301 2.276,-3.572 1.26,-4.602 0.014,-4.605 -1.241,-4.609 -2.261,-3.585 -2.262,-2.315 -2.265,-1.043 -1.256,-0.003 0,0 M 6.525,3.723 C 4.458,3.708 2.483,3.526 0.75,3.213 -4.36,2.295 -5.282,0.402 -5.272,-3.084 L -5.261,-7.69 6.823,-7.654 6.83,-9.191 -5.255,-9.225 -9.791,-9.24 c -3.514,-0.01 -6.581,-2.128 -7.533,-6.147 -1.094,-4.607 -1.139,-7.478 0.035,-12.281 0.866,-3.575 2.928,-6.119 6.441,-6.109 l 4.155,0.013 -0.016,5.52 c -0.013,3.989 3.429,7.518 7.526,7.53 l 12.073,0.032 c 3.358,0.013 6.034,2.786 6.023,6.16 L 18.879,-3.017 C 18.872,0.26 16.101,2.709 12.82,3.249 10.745,3.588 8.589,3.739 6.525,3.723"
               inkscape:connector-curvature="0" /></g><g
             transform="matrix(0.9632004,0,0,0.9632004,259.79859,269.16617)"
             id="g105"><g
               id="g107" /><g
               id="g113"><g
                 style="opacity:0.60000598"
                 id="g115"
                 clip-path="url(#clipPath109)"><g
                   id="g117"
                   transform="translate(7307.0762,7263.7217)"><path
                     id="path119"
                     style="fill:#ffffff;fill-opacity:1;fill-rule:nonzero;stroke:none"
                     d="M 0,0 C 1.252,0.003 2.271,-1.02 2.274,-2.29 2.28,-3.563 1.268,-4.602 0.013,-4.605 -1.233,-4.609 -2.256,-3.576 -2.26,-2.302 -2.263,-1.033 -1.245,-0.002 0,0 M 6.706,29.16 6.722,23.794 C 6.731,19.635 3.216,16.123 -0.807,16.11 l -12.068,-0.034 c -3.306,-0.009 -6.035,-2.847 -6.024,-6.158 l 0.033,-11.506 c 0.01,-3.276 2.859,-5.193 6.058,-6.124 3.828,-1.114 7.495,-1.308 12.069,0.034 3.043,0.891 6.034,2.672 6.026,6.159 L 5.273,3.085 -6.795,3.052 -6.802,4.588 5.268,4.621 11.309,4.639 c 3.514,0.01 4.815,2.462 6.027,6.143 1.252,3.789 1.185,7.429 -0.034,12.282 -0.88,3.493 -2.543,6.12 -6.062,6.109 L 6.706,29.16 z"
                     inkscape:connector-curvature="0" /></g></g></g></g></g></g></g></g></svg>